<?xml version="1.0" encoding="utf-8"?>
<!-- Generator: Adobe Illustrator 25.3.0, SVG Export Plug-In . SVG Version: 6.00 Build 0)  -->
<svg version="1.1" id="Layer_1" xmlns="http://www.w3.org/2000/svg" xmlns:xlink="http://www.w3.org/1999/xlink" x="0px" y="0px"
	 viewBox="0 0 1920 1000" style="enable-background:new 0 0 1920 1000;" xml:space="preserve">
<style type="text/css">
	.st0{clip-path:url(#SVGID_2_);fill:url(#SVGID_3_);}
	.st1{clip-path:url(#SVGID_5_);fill:url(#SVGID_6_);}
</style>
<g>
	<g>
		<defs>
			<rect id="SVGID_1_" x="-8" y="537" width="2002" height="473"/>
		</defs>
		<clipPath id="SVGID_2_">
			<use xlink:href="#SVGID_1_"  style="overflow:visible;"/>
		</clipPath>
		
			<linearGradient id="SVGID_3_" gradientUnits="userSpaceOnUse" x1="1072.4255" y1="851.2557" x2="2677.0559" y2="851.2557" gradientTransform="matrix(1 0 0 1 0 -78)">
			<stop  offset="0" style="stop-color:#1B1865"/>
			<stop  offset="0.779" style="stop-color:#7664E5"/>
		</linearGradient>
		<path class="st0" d="M714.7,868.5c129.2-102.3,299.6-137,464.1-145.7c164.6-8.7,330.3,5.4,494-13.8
			c126.6-14.8,250.8-49.6,366.6-102.6c16.8-7.7,37.2-15.6,52.8-5.6c17,10.9,16.7,35.5,14.3,55.6c-8,68.4-19.7,144-73.3,187.2
			c-32.6,26.2-75.2,35.6-116.3,43.5c-284.4,54.4-575.4,73.9-864.6,57.9C936.2,938.4,816.5,925.1,714.7,868.5L714.7,868.5z"/>
	</g>
</g>
<g>
	<g>
		<defs>
			<rect id="SVGID_4_" x="-82.2" y="543.8" width="2057.2" height="472.9"/>
		</defs>
		<clipPath id="SVGID_5_">
			<use xlink:href="#SVGID_4_"  style="overflow:visible;"/>
		</clipPath>
		
			<linearGradient id="SVGID_6_" gradientUnits="userSpaceOnUse" x1="528.9627" y1="117.9771" x2="1713.5074" y2="117.9771" gradientTransform="matrix(1 0 0 -1 0 1002)">
			<stop  offset="0" style="stop-color:#7664E5"/>
			<stop  offset="1" style="stop-color:#1B1865"/>
		</linearGradient>
		<path class="st1" d="M1365.1,830.3c203-23,391.9-100,595.8-103.3c35.7-0.6,76-29.3,105-6c46.2,37.2,52.3,109,54.3,171.8
			c1.5,44.6,1.2,94.4-26.9,126.8c-27.3,31.6-71.5,35.2-111.1,36c-295.9,5.7-591.5-34.9-887.3-25.8c-275.2,8.5-515.1,61.8-779-23.6
			c71.5-117,190.4-199.5,317.2-222.6c3.9-0.7,7.7-1.4,11.5-2c121-19.5,213.1,7.9,336.7,25.3C1108.6,824.7,1237.2,844.8,1365.1,830.3
			L1365.1,830.3z"/>
	</g>
</g>
</svg>
